<svg width="500" height="500" viewBox="0 0 500 500" fill="none" xmlns="http://www.w3.org/2000/svg">
<g clip-path="url(#clip0_16_15)">
<path d="M322.581 0H80.6452C36.1061 0 0 37.3096 0 83.3333V333.333C0 379.357 36.1061 416.667 80.6452 416.667H322.581C367.12 416.667 403.226 379.357 403.226 333.333V83.3333C403.226 37.3096 367.12 0 322.581 0Z" fill="#F67906"/>
<path d="M319.441 11.5977L79.8603 46.391C35.7547 52.7962 5.02499 94.9352 11.2236 140.511L44.8946 388.078C51.0932 433.654 91.8729 465.408 135.979 459.003L375.56 424.209C419.665 417.804 450.395 375.665 444.196 330.089L410.525 82.5223C404.327 36.9465 363.547 5.19244 319.441 11.5977Z" fill="white"/>
<path d="M326.213 22.9701L93.6501 91.8794C50.8364 104.565 26.0812 150.713 38.3578 194.954L105.044 435.27C117.321 479.511 161.98 505.091 204.794 492.405L437.357 423.496C480.171 410.81 504.926 364.662 492.65 320.421L425.963 80.1054C413.687 35.8646 369.027 10.2842 326.213 22.9701Z" fill="#0A275E"/>
<path d="M101.29 351.333C99.742 351.333 98.7097 350.889 98.1936 350C97.6774 349.111 97.5057 348.133 97.6774 347.067C98.3653 344.4 100.602 342.533 104.387 341.467C110.581 339.511 115.14 337.644 118.065 335.867C120.99 333.911 123.312 330.177 125.032 324.667L161.419 203.067C163.14 197.378 163.226 193.378 161.677 191.067C160.301 188.578 156.861 186.623 151.355 185.2C149.462 184.667 148.172 183.867 147.484 182.8C146.796 181.733 146.623 180.667 146.968 179.6C147.312 178.356 148.344 177.378 150.065 176.667C151.785 175.778 154.538 175.333 158.323 175.333C160.731 175.333 163.828 175.511 167.613 175.867C171.398 176.044 175.355 176.311 179.484 176.667C183.613 176.844 187.398 176.933 190.839 176.933L233.677 176.667C241.075 176.667 247.097 176.4 251.742 175.867C256.387 175.156 260 174.533 262.581 174C265.333 173.467 267.226 173.2 268.258 173.2C269.635 173.2 270.839 173.733 271.871 174.8C272.903 175.689 273.419 177.111 273.419 179.067C273.419 181.378 272.817 184.667 271.613 188.933C270.581 193.023 269.462 197.378 268.258 202C267.226 206.444 266.71 210.533 266.71 214.267C266.71 216.044 266.194 217.378 265.161 218.267C264.301 219.156 263.441 219.6 262.581 219.6C261.893 219.6 261.119 219.244 260.258 218.533C259.398 217.823 258.796 216.667 258.452 215.067C257.248 204.756 255.441 197.378 253.032 192.933C250.623 188.489 246.151 186.267 239.613 186.267H222.065C217.764 186.267 214.151 187.778 211.226 190.8C208.301 193.644 205.635 199.423 203.226 208.133L191.871 248.933C191.183 251.244 191.269 252.933 192.129 254C192.99 254.889 194.452 255.333 196.516 255.333H218.194C222.667 255.333 226.538 253.823 229.806 250.8C233.075 247.778 236.086 243.778 238.839 238.8C239.699 237.2 240.817 236.044 242.194 235.333C243.57 234.444 244.774 234 245.806 234C246.667 234 247.269 234.533 247.613 235.6C248.129 236.667 247.957 238.178 247.097 240.133C245.548 244.044 244.086 247.867 242.71 251.6C241.333 255.156 240.129 258.711 239.097 262.267C238.065 265.823 237.119 269.377 236.258 272.933C235.398 276.489 234.538 280.311 233.677 284.4C232.99 287.067 232.215 289.023 231.355 290.267C230.494 291.333 229.635 291.867 228.774 291.867C227.57 291.867 226.452 291.244 225.419 290C224.559 288.756 224.215 287.244 224.387 285.467C224.731 279.778 224.301 275.333 223.097 272.133C222.065 268.756 219.914 267.067 216.645 267.067H191.613C189.72 267.067 188.086 267.6 186.71 268.667C185.506 269.733 184.645 271.244 184.129 273.2L171.226 319.333C169.333 325.911 169.419 330.978 171.484 334.533C173.72 338.089 178.28 339.867 185.161 339.867H203.742C207.183 339.867 210.71 339.244 214.323 338C217.936 336.756 221.29 335.067 224.387 332.933C228.172 330.444 231.699 326.711 234.968 321.733C238.236 316.578 241.506 311.511 244.774 306.533C245.635 305.111 246.323 304.223 246.839 303.867C247.527 303.511 248.387 303.333 249.419 303.333C250.452 303.333 251.14 303.778 251.484 304.667C252 305.556 252.258 307.156 252.258 309.467C252.258 311.423 251.484 314.8 249.936 319.6C248.559 324.223 246.752 329.2 244.516 334.533C242.28 339.867 239.871 344.311 237.29 347.867C236.43 349.111 235.312 349.911 233.936 350.267C232.731 350.8 231.441 351.067 230.065 351.067C229.377 351.067 226.796 350.978 222.323 350.8C217.849 350.8 212.172 350.711 205.29 350.533C198.581 350.533 191.269 350.444 183.355 350.267C175.441 350.267 167.527 350.178 159.613 350C151.871 350 144.903 350 138.71 350C135.269 350 131.226 350.089 126.581 350.267C122.107 350.444 117.635 350.623 113.161 350.8C108.688 351.156 104.731 351.333 101.29 351.333ZM338.778 351.867C331.897 351.867 324.929 351.6 317.875 351.067C310.994 350.533 304.8 350.089 299.294 349.733C293.961 349.2 290.176 348.933 287.94 348.933C284.498 348.933 280.369 349.111 275.552 349.467C270.907 349.644 266.09 349.911 261.101 350.267C256.284 350.623 251.982 350.8 248.198 350.8C247.165 350.8 246.305 350.444 245.617 349.733C244.756 349.022 244.498 348.044 244.843 346.8C245.875 343.778 248.111 341.822 251.552 340.933C256.198 339.867 259.897 338.8 262.649 337.733C265.574 336.489 267.811 334.8 269.359 332.667C271.079 330.533 272.456 327.689 273.488 324.133L309.875 203.067C310.907 198.978 311.252 195.867 310.907 193.733C310.563 191.6 309.359 189.911 307.294 188.667C305.23 187.423 302.133 186.267 298.004 185.2C296.627 184.844 295.595 184.223 294.907 183.333C294.391 182.267 294.391 180.933 294.907 179.333C295.252 178.089 296.026 177.111 297.23 176.4C298.606 175.689 299.811 175.333 300.843 175.333C306.52 175.333 312.972 175.6 320.198 176.133C327.595 176.489 333.875 176.667 339.036 176.667C342.477 176.667 346.004 176.578 349.617 176.4C353.23 176.223 357.273 176.044 361.746 175.867C366.391 175.689 371.724 175.6 377.746 175.6C393.918 175.6 407.51 178.889 418.52 185.467C429.531 192.044 437.875 200.844 443.552 211.867C449.23 222.711 452.069 234.533 452.069 247.333C452.069 261.378 449.058 274.711 443.036 287.333C437.187 299.777 429.015 310.889 418.52 320.667C408.198 330.267 396.155 337.911 382.391 343.6C368.8 349.111 354.262 351.867 338.778 351.867ZM338.52 341.733C347.123 341.733 355.466 338.889 363.552 333.2C371.811 327.333 379.208 319.689 385.746 310.267C392.284 300.667 397.445 290 401.23 278.267C405.187 266.533 407.165 254.711 407.165 242.8C407.165 228.756 405.703 217.644 402.778 209.467C399.853 201.111 395.724 195.156 390.391 191.6C385.23 187.867 379.294 186 372.585 186C369.316 186 366.477 186.356 364.069 187.067C361.66 187.778 359.681 189.023 358.133 190.8C356.756 192.4 355.639 194.623 354.778 197.467L319.94 318.267C318.219 324.133 318.219 328.844 319.94 332.4C321.832 335.778 324.585 338.177 328.198 339.6C331.811 341.022 335.252 341.733 338.52 341.733Z" fill="white"/>
</g>
<defs>
<clipPath id="clip0_16_15">
<rect width="500" height="500" fill="white"/>
</clipPath>
</defs>
</svg>
