<svg xmlns="http://www.w3.org/2000/svg" xmlns:xlink="http://www.w3.org/1999/xlink" width="500" zoomAndPan="magnify" viewBox="0 0 375 374.999991" height="500" preserveAspectRatio="xMidYMid meet" version="1.0"><defs><g/></defs><g fill="#0062ff" fill-opacity="1"><g transform="translate(36.870006, 204.398761)"><g><path d="M 19.421875 -52.046875 C 20.453125 -52.046875 21.742188 -51.914062 23.296875 -51.65625 C 24.859375 -51.40625 26.109375 -51.113281 27.046875 -50.78125 L 27.046875 -42.515625 L 23.796875 -42.515625 C 22.296875 -42.515625 21.257812 -42.234375 20.6875 -41.671875 C 20.125 -41.109375 19.84375 -40.140625 19.84375 -38.765625 L 19.84375 -37.296875 L 27.046875 -37.296875 L 27.046875 -27.75 L 19.84375 -27.75 L 19.84375 0 L 5.796875 0 L 5.796875 -27.75 L 0.5625 -27.75 L 0.5625 -37.296875 L 5.796875 -37.296875 L 5.796875 -38.84375 C 5.796875 -43.644531 6.972656 -47.046875 9.328125 -49.046875 C 11.679688 -51.046875 15.046875 -52.046875 19.421875 -52.046875 Z M 19.421875 -52.046875 "/></g></g></g><g fill="#0062ff" fill-opacity="1"><g transform="translate(60.314476, 204.398761)"><g><path d="M 22.671875 -38.140625 C 28.367188 -38.140625 33.003906 -37.1875 36.578125 -35.28125 C 40.160156 -33.375 41.953125 -30.273438 41.953125 -25.984375 L 41.953125 -11.4375 C 41.953125 -10.632812 42.140625 -9.972656 42.515625 -9.453125 C 42.890625 -8.941406 43.457031 -8.6875 44.21875 -8.6875 L 46.75 -8.6875 L 46.75 -0.5625 C 46.613281 -0.46875 46.25 -0.3125 45.65625 -0.09375 C 45.070312 0.113281 44.238281 0.320312 43.15625 0.53125 C 42.070312 0.738281 40.820312 0.84375 39.40625 0.84375 C 36.675781 0.84375 34.425781 0.429688 32.65625 -0.390625 C 30.894531 -1.210938 29.6875 -2.351562 29.03125 -3.8125 C 27.238281 -2.394531 25.234375 -1.265625 23.015625 -0.421875 C 20.804688 0.421875 18.21875 0.84375 15.25 0.84375 C 6.5 0.84375 2.125 -2.640625 2.125 -9.609375 C 2.125 -13.234375 3.097656 -16 5.046875 -17.90625 C 7.003906 -19.8125 9.816406 -21.113281 13.484375 -21.8125 C 17.160156 -22.519531 21.960938 -22.875 27.890625 -22.875 L 27.890625 -24.71875 C 27.890625 -26.175781 27.382812 -27.28125 26.375 -28.03125 C 25.363281 -28.789062 24.054688 -29.171875 22.453125 -29.171875 C 20.992188 -29.171875 19.734375 -28.910156 18.671875 -28.390625 C 17.617188 -27.867188 17.09375 -27.046875 17.09375 -25.921875 L 17.09375 -25.640625 L 3.25 -25.640625 C 3.195312 -25.867188 3.171875 -26.195312 3.171875 -26.625 C 3.171875 -30.15625 4.851562 -32.957031 8.21875 -35.03125 C 11.59375 -37.101562 16.410156 -38.140625 22.671875 -38.140625 Z M 27.890625 -16.25 C 23.890625 -16.25 20.9375 -15.8125 19.03125 -14.9375 C 17.125 -14.0625 16.171875 -12.894531 16.171875 -11.4375 C 16.171875 -9.082031 17.769531 -7.90625 20.96875 -7.90625 C 22.8125 -7.90625 24.425781 -8.398438 25.8125 -9.390625 C 27.195312 -10.378906 27.890625 -11.601562 27.890625 -13.0625 Z M 27.890625 -16.25 "/></g></g></g><g fill="#0062ff" fill-opacity="1"><g transform="translate(103.390532, 204.398761)"><g><path d="M 23.515625 -38.140625 C 29.640625 -38.140625 34.59375 -36.832031 38.375 -34.21875 C 42.164062 -31.601562 44.0625 -27.613281 44.0625 -22.25 L 30.4375 -22.25 C 30.4375 -26.488281 28.128906 -28.609375 23.515625 -28.609375 C 18.898438 -28.609375 16.59375 -25.945312 16.59375 -20.625 L 16.59375 -16.59375 C 16.59375 -11.320312 18.992188 -8.6875 23.796875 -8.6875 C 28.597656 -8.6875 31 -10.851562 31 -15.1875 L 44.0625 -15.1875 C 44.0625 -9.769531 42.164062 -5.742188 38.375 -3.109375 C 34.59375 -0.472656 29.640625 0.84375 23.515625 0.84375 C 16.972656 0.84375 11.84375 -0.800781 8.125 -4.09375 C 4.40625 -7.394531 2.546875 -12.242188 2.546875 -18.640625 C 2.546875 -25.046875 4.40625 -29.894531 8.125 -33.1875 C 11.84375 -36.488281 16.972656 -38.140625 23.515625 -38.140625 Z M 23.515625 -38.140625 "/></g></g></g><g fill="#0062ff" fill-opacity="1"><g transform="translate(146.466589, 204.398761)"><g><path d="M 29.09375 -37.296875 L 29.09375 -27.75 L 21.1875 -27.75 L 21.1875 -13.5625 C 21.1875 -11.863281 21.46875 -10.625 22.03125 -9.84375 C 22.59375 -9.070312 23.628906 -8.6875 25.140625 -8.6875 L 29.09375 -8.6875 L 29.09375 -0.421875 C 27.96875 -0.046875 26.507812 0.253906 24.71875 0.484375 C 22.925781 0.722656 21.375 0.84375 20.0625 0.84375 C 15.914062 0.84375 12.722656 0.09375 10.484375 -1.40625 C 8.253906 -2.914062 7.140625 -5.484375 7.140625 -9.109375 L 7.140625 -27.75 L 1.90625 -27.75 L 1.90625 -37.296875 L 7.703125 -37.296875 L 10.734375 -48.59375 L 21.1875 -48.59375 L 21.1875 -37.296875 Z M 29.09375 -37.296875 "/></g></g></g><g fill="#0062ff" fill-opacity="1"><g transform="translate(173.79501, 204.398761)"><g><path d="M 31.28125 0 L 30.375 -5.65625 C 28.90625 -3.625 26.984375 -2.03125 24.609375 -0.875 C 22.234375 0.269531 19.726562 0.84375 17.09375 0.84375 C 12.757812 0.84375 9.507812 -0.351562 7.34375 -2.75 C 5.175781 -5.15625 4.09375 -8.617188 4.09375 -13.140625 L 4.09375 -37.296875 L 18.15625 -37.296875 L 18.15625 -14.828125 C 18.15625 -13.234375 18.566406 -11.953125 19.390625 -10.984375 C 20.210938 -10.015625 21.375 -9.53125 22.875 -9.53125 C 24.625 -9.53125 26.039062 -10.09375 27.125 -11.21875 C 28.207031 -12.351562 28.75 -13.742188 28.75 -15.390625 L 28.75 -37.296875 L 42.796875 -37.296875 L 42.796875 0 Z M 31.28125 0 "/></g></g></g><g fill="#0062ff" fill-opacity="1"><g transform="translate(216.871061, 204.398761)"><g><path d="M 26.90625 -38.203125 C 27.988281 -38.203125 28.953125 -38.070312 29.796875 -37.8125 C 30.648438 -37.5625 31.078125 -37.410156 31.078125 -37.359375 L 31.078125 -25.5625 L 26.5625 -25.5625 C 23.632812 -25.5625 21.523438 -24.804688 20.234375 -23.296875 C 18.941406 -21.796875 18.296875 -19.5625 18.296875 -16.59375 L 18.296875 0 L 4.234375 0 L 4.234375 -37.296875 L 15.75 -37.296875 L 16.671875 -31.640625 C 17.515625 -33.804688 18.851562 -35.441406 20.6875 -36.546875 C 22.53125 -37.648438 24.601562 -38.203125 26.90625 -38.203125 Z M 26.90625 -38.203125 "/></g></g></g><g fill="#0062ff" fill-opacity="1"><g transform="translate(244.199493, 204.398761)"><g><path d="M 4.734375 -41.671875 L 4.734375 -51.203125 L 18.78125 -51.203125 L 18.78125 -41.671875 Z M 4.734375 0 L 4.734375 -37.296875 L 18.78125 -37.296875 L 18.78125 0 Z M 4.734375 0 "/></g></g></g><g fill="#0062ff" fill-opacity="1"><g transform="translate(263.689398, 204.398761)"><g><path d="M 23.515625 -38.140625 C 30.347656 -38.140625 35.5625 -36.535156 39.15625 -33.328125 C 42.757812 -30.128906 44.5625 -25.234375 44.5625 -18.640625 L 44.5625 -16.25 L 16.59375 -16.25 C 16.59375 -13.5625 17.191406 -11.535156 18.390625 -10.171875 C 19.597656 -8.804688 21.492188 -8.125 24.078125 -8.125 C 26.429688 -8.125 28.160156 -8.617188 29.265625 -9.609375 C 30.378906 -10.597656 30.9375 -11.914062 30.9375 -13.5625 L 44.5625 -13.5625 C 44.5625 -9.039062 42.84375 -5.507812 39.40625 -2.96875 C 35.96875 -0.425781 30.953125 0.84375 24.359375 0.84375 C 17.441406 0.84375 12.078125 -0.765625 8.265625 -3.984375 C 4.453125 -7.210938 2.546875 -12.097656 2.546875 -18.640625 C 2.546875 -25.046875 4.40625 -29.894531 8.125 -33.1875 C 11.84375 -36.488281 16.972656 -38.140625 23.515625 -38.140625 Z M 24.078125 -29.171875 C 19.648438 -29.171875 17.179688 -27.070312 16.671875 -22.875 L 30.375 -22.875 C 30.375 -24.8125 29.816406 -26.34375 28.703125 -27.46875 C 27.597656 -28.601562 26.054688 -29.171875 24.078125 -29.171875 Z M 24.078125 -29.171875 "/></g></g></g><g fill="#0062ff" fill-opacity="1"><g transform="translate(306.76546, 204.398761)"><g><path d="M 26.90625 -38.203125 C 27.988281 -38.203125 28.953125 -38.070312 29.796875 -37.8125 C 30.648438 -37.5625 31.078125 -37.410156 31.078125 -37.359375 L 31.078125 -25.5625 L 26.5625 -25.5625 C 23.632812 -25.5625 21.523438 -24.804688 20.234375 -23.296875 C 18.941406 -21.796875 18.296875 -19.5625 18.296875 -16.59375 L 18.296875 0 L 4.234375 0 L 4.234375 -37.296875 L 15.75 -37.296875 L 16.671875 -31.640625 C 17.515625 -33.804688 18.851562 -35.441406 20.6875 -36.546875 C 22.53125 -37.648438 24.601562 -38.203125 26.90625 -38.203125 Z M 26.90625 -38.203125 "/></g></g></g><g fill="#0062ff" fill-opacity="1"><g transform="translate(114.375696, 218.371138)"><g><path d="M 5.609375 -8.125 C 6.367188 -8.125 6.984375 -8 7.453125 -7.75 C 7.921875 -7.5 8.257812 -7.164062 8.46875 -6.75 C 8.675781 -6.332031 8.757812 -5.863281 8.71875 -5.34375 L 8.703125 -5.21875 L 6.625 -5.21875 L 6.625 -5.34375 C 6.601562 -6.175781 6.164062 -6.59375 5.3125 -6.59375 C 4.90625 -6.59375 4.519531 -6.46875 4.15625 -6.21875 C 3.789062 -5.976562 3.492188 -5.613281 3.265625 -5.125 C 3.035156 -4.632812 2.921875 -4.019531 2.921875 -3.28125 C 2.921875 -2.8125 2.984375 -2.4375 3.109375 -2.15625 C 3.242188 -1.875 3.421875 -1.671875 3.640625 -1.546875 C 3.867188 -1.421875 4.113281 -1.359375 4.375 -1.359375 C 4.789062 -1.359375 5.148438 -1.457031 5.453125 -1.65625 C 5.753906 -1.863281 6.015625 -2.1875 6.234375 -2.625 L 4.6875 -2.625 L 4.96875 -4.25 L 8.46875 -4.25 L 7.71875 0 L 6.109375 0 L 6.140625 -1.234375 L 5.625 -0.34375 C 5.375 -0.15625 5.097656 -0.0234375 4.796875 0.046875 C 4.492188 0.117188 4.132812 0.15625 3.71875 0.15625 C 2.8125 0.15625 2.082031 -0.113281 1.53125 -0.65625 C 0.988281 -1.195312 0.71875 -1.992188 0.71875 -3.046875 C 0.71875 -3.878906 0.851562 -4.609375 1.125 -5.234375 C 1.394531 -5.867188 1.757812 -6.398438 2.21875 -6.828125 C 2.6875 -7.253906 3.210938 -7.578125 3.796875 -7.796875 C 4.378906 -8.015625 4.984375 -8.125 5.609375 -8.125 Z M 5.609375 -8.125 "/></g></g></g><g fill="#0062ff" fill-opacity="1"><g transform="translate(122.989954, 218.371138)"><g><path d="M 5.21875 -8.46875 L 4.109375 -8.46875 L 5.421875 -9.921875 L 7.265625 -9.921875 Z M 3.4375 -6.34375 L 3.171875 -4.796875 L 6.84375 -4.796875 L 6.5625 -3.1875 L 2.890625 -3.1875 L 2.609375 -1.609375 L 6.625 -1.609375 L 6.34375 0 L 0.234375 0 L 1.65625 -7.953125 L 7.640625 -7.953125 L 7.34375 -6.34375 Z M 3.4375 -6.34375 "/></g></g></g><g fill="#0062ff" fill-opacity="1"><g transform="translate(129.874374, 218.371138)"><g><path d="M 9.265625 -7.953125 L 7.859375 0 L 5.140625 0 L 3.234375 -5.265625 L 2.3125 0 L 0.234375 0 L 1.65625 -7.953125 L 4.234375 -7.953125 L 6.234375 -2.453125 L 7.1875 -7.953125 Z M 9.265625 -7.953125 "/></g></g></g><g fill="#0062ff" fill-opacity="1"><g transform="translate(138.580897, 218.371138)"><g><path d="M 5.21875 -8.46875 L 4.109375 -8.46875 L 5.421875 -9.921875 L 7.265625 -9.921875 Z M 3.4375 -6.34375 L 3.171875 -4.796875 L 6.84375 -4.796875 L 6.5625 -3.1875 L 2.890625 -3.1875 L 2.609375 -1.609375 L 6.625 -1.609375 L 6.34375 0 L 0.234375 0 L 1.65625 -7.953125 L 7.640625 -7.953125 L 7.34375 -6.34375 Z M 3.4375 -6.34375 "/></g></g></g><g fill="#0062ff" fill-opacity="1"><g transform="translate(145.465318, 218.371138)"><g><path d="M 7.875 -6.15625 C 7.875 -4.925781 7.191406 -4.132812 5.828125 -3.78125 C 6.191406 -3.625 6.441406 -3.367188 6.578125 -3.015625 C 6.710938 -2.660156 6.78125 -2.164062 6.78125 -1.53125 C 6.78125 -1.195312 6.800781 -0.90625 6.84375 -0.65625 C 6.894531 -0.40625 6.960938 -0.1875 7.046875 0 L 4.78125 0 C 4.75 -0.21875 4.726562 -0.453125 4.71875 -0.703125 C 4.707031 -0.953125 4.703125 -1.304688 4.703125 -1.765625 C 4.703125 -2.148438 4.640625 -2.445312 4.515625 -2.65625 C 4.390625 -2.875 4.207031 -2.992188 3.96875 -3.015625 C 3.851562 -3.015625 3.742188 -3.015625 3.640625 -3.015625 C 3.546875 -3.015625 3.441406 -3.015625 3.328125 -3.015625 L 2.84375 -3.015625 L 2.3125 0 L 0.234375 0 L 1.65625 -7.953125 L 4.8125 -7.953125 C 5.050781 -7.953125 5.265625 -7.945312 5.453125 -7.9375 C 5.640625 -7.9375 5.835938 -7.925781 6.046875 -7.90625 C 6.378906 -7.863281 6.679688 -7.773438 6.953125 -7.640625 C 7.234375 -7.515625 7.457031 -7.328125 7.625 -7.078125 C 7.789062 -6.835938 7.875 -6.53125 7.875 -6.15625 Z M 3.109375 -4.515625 L 3.875 -4.515625 C 3.976562 -4.515625 4.078125 -4.515625 4.171875 -4.515625 C 4.265625 -4.515625 4.347656 -4.519531 4.421875 -4.53125 C 4.628906 -4.550781 4.820312 -4.59375 5 -4.65625 C 5.1875 -4.726562 5.332031 -4.835938 5.4375 -4.984375 C 5.550781 -5.140625 5.609375 -5.347656 5.609375 -5.609375 C 5.609375 -5.878906 5.53125 -6.0625 5.375 -6.15625 C 5.21875 -6.257812 5.023438 -6.316406 4.796875 -6.328125 C 4.722656 -6.335938 4.640625 -6.34375 4.546875 -6.34375 C 4.453125 -6.34375 4.351562 -6.34375 4.25 -6.34375 L 3.4375 -6.34375 Z M 3.109375 -4.515625 "/></g></g></g><g fill="#0062ff" fill-opacity="1"><g transform="translate(152.799499, 218.371138)"><g><path d="M 5.21875 -2.0625 L 2.71875 -2.0625 L 1.703125 0 L -0.5 0 L 3.703125 -7.953125 L 6.390625 -7.953125 L 7.78125 0 L 5.53125 0 Z M 5 -3.671875 L 4.65625 -6.03125 L 3.5 -3.671875 Z M 5 -3.671875 "/></g></g></g><g fill="#0062ff" fill-opacity="1"><g transform="translate(160.594972, 218.371138)"><g><path d="M 7.96875 -6.34375 L 5.390625 -6.34375 L 4.28125 0 L 2.203125 0 L 3.328125 -6.34375 L 0.71875 -6.34375 L 1.03125 -7.953125 L 8.265625 -7.953125 Z M 7.96875 -6.34375 "/></g></g></g><g fill="#0062ff" fill-opacity="1"><g transform="translate(167.525532, 218.371138)"><g><path d="M 3.4375 -6.34375 L 3.171875 -4.796875 L 6.84375 -4.796875 L 6.5625 -3.1875 L 2.890625 -3.1875 L 2.609375 -1.609375 L 6.625 -1.609375 L 6.34375 0 L 0.234375 0 L 1.65625 -7.953125 L 7.640625 -7.953125 L 7.34375 -6.34375 Z M 3.4375 -6.34375 "/></g></g></g><g fill="#0062ff" fill-opacity="1"><g transform="translate(174.40995, 218.371138)"><g><path d="M 8.703125 -7.953125 L 7.96875 -3.71875 C 7.925781 -3.457031 7.890625 -3.242188 7.859375 -3.078125 C 7.828125 -2.921875 7.78125 -2.722656 7.71875 -2.484375 C 7.59375 -1.972656 7.390625 -1.515625 7.109375 -1.109375 C 6.828125 -0.710938 6.429688 -0.398438 5.921875 -0.171875 C 5.421875 0.046875 4.765625 0.15625 3.953125 0.15625 C 3.210938 0.15625 2.601562 0.0507812 2.125 -0.15625 C 1.65625 -0.363281 1.300781 -0.640625 1.0625 -0.984375 C 0.832031 -1.335938 0.71875 -1.734375 0.71875 -2.171875 C 0.71875 -2.378906 0.734375 -2.597656 0.765625 -2.828125 C 0.796875 -3.066406 0.847656 -3.40625 0.921875 -3.84375 L 1.65625 -7.953125 L 3.71875 -7.953125 L 2.875 -3.109375 C 2.851562 -2.984375 2.832031 -2.867188 2.8125 -2.765625 C 2.800781 -2.660156 2.796875 -2.550781 2.796875 -2.4375 C 2.796875 -2.09375 2.925781 -1.828125 3.1875 -1.640625 C 3.445312 -1.453125 3.753906 -1.359375 4.109375 -1.359375 C 4.515625 -1.359375 4.847656 -1.445312 5.109375 -1.625 C 5.367188 -1.8125 5.5625 -2.148438 5.6875 -2.640625 C 5.695312 -2.710938 5.707031 -2.78125 5.71875 -2.84375 C 5.738281 -2.914062 5.757812 -3.003906 5.78125 -3.109375 L 6.625 -7.953125 Z M 8.703125 -7.953125 "/></g></g></g><g fill="#0062ff" fill-opacity="1"><g transform="translate(182.343815, 218.371138)"><g><path d="M 7.875 -6.15625 C 7.875 -4.925781 7.191406 -4.132812 5.828125 -3.78125 C 6.191406 -3.625 6.441406 -3.367188 6.578125 -3.015625 C 6.710938 -2.660156 6.78125 -2.164062 6.78125 -1.53125 C 6.78125 -1.195312 6.800781 -0.90625 6.84375 -0.65625 C 6.894531 -0.40625 6.960938 -0.1875 7.046875 0 L 4.78125 0 C 4.75 -0.21875 4.726562 -0.453125 4.71875 -0.703125 C 4.707031 -0.953125 4.703125 -1.304688 4.703125 -1.765625 C 4.703125 -2.148438 4.640625 -2.445312 4.515625 -2.65625 C 4.390625 -2.875 4.207031 -2.992188 3.96875 -3.015625 C 3.851562 -3.015625 3.742188 -3.015625 3.640625 -3.015625 C 3.546875 -3.015625 3.441406 -3.015625 3.328125 -3.015625 L 2.84375 -3.015625 L 2.3125 0 L 0.234375 0 L 1.65625 -7.953125 L 4.8125 -7.953125 C 5.050781 -7.953125 5.265625 -7.945312 5.453125 -7.9375 C 5.640625 -7.9375 5.835938 -7.925781 6.046875 -7.90625 C 6.378906 -7.863281 6.679688 -7.773438 6.953125 -7.640625 C 7.234375 -7.515625 7.457031 -7.328125 7.625 -7.078125 C 7.789062 -6.835938 7.875 -6.53125 7.875 -6.15625 Z M 3.109375 -4.515625 L 3.875 -4.515625 C 3.976562 -4.515625 4.078125 -4.515625 4.171875 -4.515625 C 4.265625 -4.515625 4.347656 -4.519531 4.421875 -4.53125 C 4.628906 -4.550781 4.820312 -4.59375 5 -4.65625 C 5.1875 -4.726562 5.332031 -4.835938 5.4375 -4.984375 C 5.550781 -5.140625 5.609375 -5.347656 5.609375 -5.609375 C 5.609375 -5.878906 5.53125 -6.0625 5.375 -6.15625 C 5.21875 -6.257812 5.023438 -6.316406 4.796875 -6.328125 C 4.722656 -6.335938 4.640625 -6.34375 4.546875 -6.34375 C 4.453125 -6.34375 4.351562 -6.34375 4.25 -6.34375 L 3.4375 -6.34375 Z M 3.109375 -4.515625 "/></g></g></g><g fill="#0062ff" fill-opacity="1"><g transform="translate(189.683897, 218.371138)"><g/></g></g><g fill="#0062ff" fill-opacity="1"><g transform="translate(190.802197, 218.371138)"><g/></g></g><g fill="#0062ff" fill-opacity="1"><g transform="translate(191.932492, 218.371138)"><g><path d="M 5.65625 -7.90625 C 6.1875 -7.84375 6.65625 -7.6875 7.0625 -7.4375 C 7.476562 -7.1875 7.804688 -6.820312 8.046875 -6.34375 C 8.296875 -5.875 8.421875 -5.285156 8.421875 -4.578125 C 8.421875 -3.804688 8.265625 -3.09375 7.953125 -2.4375 C 7.648438 -1.78125 7.191406 -1.238281 6.578125 -0.8125 C 5.960938 -0.382812 5.191406 -0.125 4.265625 -0.03125 C 4.054688 -0.0195312 3.882812 -0.0078125 3.75 0 C 3.625 0 3.453125 0 3.234375 0 L 0.234375 0 L 1.65625 -7.953125 L 4.546875 -7.953125 C 4.753906 -7.953125 4.941406 -7.945312 5.109375 -7.9375 C 5.273438 -7.9375 5.457031 -7.925781 5.65625 -7.90625 Z M 4.0625 -1.640625 C 4.5625 -1.679688 4.96875 -1.835938 5.28125 -2.109375 C 5.601562 -2.390625 5.84375 -2.738281 6 -3.15625 C 6.15625 -3.570312 6.234375 -4.023438 6.234375 -4.515625 C 6.234375 -5.117188 6.113281 -5.5625 5.875 -5.84375 C 5.644531 -6.125 5.3125 -6.28125 4.875 -6.3125 C 4.75 -6.332031 4.628906 -6.34375 4.515625 -6.34375 C 4.410156 -6.34375 4.28125 -6.34375 4.125 -6.34375 L 3.4375 -6.34375 L 2.609375 -1.609375 L 3.3125 -1.609375 C 3.46875 -1.609375 3.597656 -1.609375 3.703125 -1.609375 C 3.804688 -1.617188 3.925781 -1.628906 4.0625 -1.640625 Z M 4.0625 -1.640625 "/></g></g></g><g fill="#0062ff" fill-opacity="1"><g transform="translate(200.131597, 218.371138)"><g><path d="M 3.4375 -6.34375 L 3.171875 -4.796875 L 6.84375 -4.796875 L 6.5625 -3.1875 L 2.890625 -3.1875 L 2.609375 -1.609375 L 6.625 -1.609375 L 6.34375 0 L 0.234375 0 L 1.65625 -7.953125 L 7.640625 -7.953125 L 7.34375 -6.34375 Z M 3.4375 -6.34375 "/></g></g></g><g fill="#0062ff" fill-opacity="1"><g transform="translate(207.028321, 218.371138)"><g/></g></g><g fill="#0062ff" fill-opacity="1"><g transform="translate(208.146621, 218.371138)"><g/></g></g><g fill="#0062ff" fill-opacity="1"><g transform="translate(209.276916, 218.371138)"><g><path d="M 3.4375 -6.34375 L 3.171875 -4.796875 L 6.734375 -4.796875 L 6.453125 -3.1875 L 2.890625 -3.1875 L 2.3125 0 L 0.234375 0 L 1.65625 -7.953125 L 7.640625 -7.953125 L 7.34375 -6.34375 Z M 3.4375 -6.34375 "/></g></g></g><g fill="#0062ff" fill-opacity="1"><g transform="translate(215.884564, 218.371138)"><g><path d="M 5.21875 -2.0625 L 2.71875 -2.0625 L 1.703125 0 L -0.5 0 L 3.703125 -7.953125 L 6.390625 -7.953125 L 7.78125 0 L 5.53125 0 Z M 5 -3.671875 L 4.65625 -6.03125 L 3.5 -3.671875 Z M 5 -3.671875 "/></g></g></g><g fill="#0062ff" fill-opacity="1"><g transform="translate(223.680035, 218.371138)"><g><path d="M 5.375 -8.125 C 6.132812 -8.125 6.757812 -8 7.25 -7.75 C 7.738281 -7.5 8.09375 -7.164062 8.3125 -6.75 C 8.539062 -6.332031 8.632812 -5.863281 8.59375 -5.34375 L 8.578125 -5.21875 L 6.5 -5.21875 L 6.5 -5.34375 C 6.476562 -6.175781 6.039062 -6.59375 5.1875 -6.59375 C 4.78125 -6.59375 4.40625 -6.460938 4.0625 -6.203125 C 3.71875 -5.953125 3.4375 -5.582031 3.21875 -5.09375 C 3.007812 -4.601562 2.90625 -3.992188 2.90625 -3.265625 C 2.90625 -2.804688 2.96875 -2.4375 3.09375 -2.15625 C 3.21875 -1.875 3.382812 -1.671875 3.59375 -1.546875 C 3.800781 -1.421875 4.03125 -1.359375 4.28125 -1.359375 C 4.6875 -1.359375 5.035156 -1.476562 5.328125 -1.71875 C 5.628906 -1.957031 5.859375 -2.296875 6.015625 -2.734375 L 6.0625 -2.84375 L 8.140625 -2.84375 L 8.109375 -2.734375 C 7.847656 -1.773438 7.359375 -1.050781 6.640625 -0.5625 C 5.921875 -0.0820312 5.0625 0.15625 4.0625 0.15625 C 3.394531 0.15625 2.8125 0.03125 2.3125 -0.21875 C 1.8125 -0.46875 1.421875 -0.832031 1.140625 -1.3125 C 0.859375 -1.800781 0.71875 -2.40625 0.71875 -3.125 C 0.71875 -3.90625 0.84375 -4.601562 1.09375 -5.21875 C 1.34375 -5.832031 1.679688 -6.351562 2.109375 -6.78125 C 2.546875 -7.21875 3.039062 -7.550781 3.59375 -7.78125 C 4.15625 -8.007812 4.75 -8.125 5.375 -8.125 Z M 5.375 -8.125 "/></g></g></g><g fill="#0062ff" fill-opacity="1"><g transform="translate(232.167444, 218.371138)"><g><path d="M 7.96875 -6.34375 L 5.390625 -6.34375 L 4.28125 0 L 2.203125 0 L 3.328125 -6.34375 L 0.71875 -6.34375 L 1.03125 -7.953125 L 8.265625 -7.953125 Z M 7.96875 -6.34375 "/></g></g></g><g fill="#0062ff" fill-opacity="1"><g transform="translate(239.098005, 218.371138)"><g><path d="M 8.703125 -7.953125 L 7.96875 -3.71875 C 7.925781 -3.457031 7.890625 -3.242188 7.859375 -3.078125 C 7.828125 -2.921875 7.78125 -2.722656 7.71875 -2.484375 C 7.59375 -1.972656 7.390625 -1.515625 7.109375 -1.109375 C 6.828125 -0.710938 6.429688 -0.398438 5.921875 -0.171875 C 5.421875 0.046875 4.765625 0.15625 3.953125 0.15625 C 3.210938 0.15625 2.601562 0.0507812 2.125 -0.15625 C 1.65625 -0.363281 1.300781 -0.640625 1.0625 -0.984375 C 0.832031 -1.335938 0.71875 -1.734375 0.71875 -2.171875 C 0.71875 -2.378906 0.734375 -2.597656 0.765625 -2.828125 C 0.796875 -3.066406 0.847656 -3.40625 0.921875 -3.84375 L 1.65625 -7.953125 L 3.71875 -7.953125 L 2.875 -3.109375 C 2.851562 -2.984375 2.832031 -2.867188 2.8125 -2.765625 C 2.800781 -2.660156 2.796875 -2.550781 2.796875 -2.4375 C 2.796875 -2.09375 2.925781 -1.828125 3.1875 -1.640625 C 3.445312 -1.453125 3.753906 -1.359375 4.109375 -1.359375 C 4.515625 -1.359375 4.847656 -1.445312 5.109375 -1.625 C 5.367188 -1.8125 5.5625 -2.148438 5.6875 -2.640625 C 5.695312 -2.710938 5.707031 -2.78125 5.71875 -2.84375 C 5.738281 -2.914062 5.757812 -3.003906 5.78125 -3.109375 L 6.625 -7.953125 Z M 8.703125 -7.953125 "/></g></g></g><g fill="#0062ff" fill-opacity="1"><g transform="translate(247.03187, 218.371138)"><g><path d="M 7.875 -6.15625 C 7.875 -4.925781 7.191406 -4.132812 5.828125 -3.78125 C 6.191406 -3.625 6.441406 -3.367188 6.578125 -3.015625 C 6.710938 -2.660156 6.78125 -2.164062 6.78125 -1.53125 C 6.78125 -1.195312 6.800781 -0.90625 6.84375 -0.65625 C 6.894531 -0.40625 6.960938 -0.1875 7.046875 0 L 4.78125 0 C 4.75 -0.21875 4.726562 -0.453125 4.71875 -0.703125 C 4.707031 -0.953125 4.703125 -1.304688 4.703125 -1.765625 C 4.703125 -2.148438 4.640625 -2.445312 4.515625 -2.65625 C 4.390625 -2.875 4.207031 -2.992188 3.96875 -3.015625 C 3.851562 -3.015625 3.742188 -3.015625 3.640625 -3.015625 C 3.546875 -3.015625 3.441406 -3.015625 3.328125 -3.015625 L 2.84375 -3.015625 L 2.3125 0 L 0.234375 0 L 1.65625 -7.953125 L 4.8125 -7.953125 C 5.050781 -7.953125 5.265625 -7.945312 5.453125 -7.9375 C 5.640625 -7.9375 5.835938 -7.925781 6.046875 -7.90625 C 6.378906 -7.863281 6.679688 -7.773438 6.953125 -7.640625 C 7.234375 -7.515625 7.457031 -7.328125 7.625 -7.078125 C 7.789062 -6.835938 7.875 -6.53125 7.875 -6.15625 Z M 3.109375 -4.515625 L 3.875 -4.515625 C 3.976562 -4.515625 4.078125 -4.515625 4.171875 -4.515625 C 4.265625 -4.515625 4.347656 -4.519531 4.421875 -4.53125 C 4.628906 -4.550781 4.820312 -4.59375 5 -4.65625 C 5.1875 -4.726562 5.332031 -4.835938 5.4375 -4.984375 C 5.550781 -5.140625 5.609375 -5.347656 5.609375 -5.609375 C 5.609375 -5.878906 5.53125 -6.0625 5.375 -6.15625 C 5.21875 -6.257812 5.023438 -6.316406 4.796875 -6.328125 C 4.722656 -6.335938 4.640625 -6.34375 4.546875 -6.34375 C 4.453125 -6.34375 4.351562 -6.34375 4.25 -6.34375 L 3.4375 -6.34375 Z M 3.109375 -4.515625 "/></g></g></g><g fill="#0062ff" fill-opacity="1"><g transform="translate(254.366051, 218.371138)"><g><path d="M 3.4375 -6.34375 L 3.171875 -4.796875 L 6.84375 -4.796875 L 6.5625 -3.1875 L 2.890625 -3.1875 L 2.609375 -1.609375 L 6.625 -1.609375 L 6.34375 0 L 0.234375 0 L 1.65625 -7.953125 L 7.640625 -7.953125 L 7.34375 -6.34375 Z M 3.4375 -6.34375 "/></g></g></g><g fill="#0062ff" fill-opacity="1"><g transform="translate(261.250472, 218.371138)"><g><path d="M 4.375 -8.125 C 5.082031 -8.125 5.644531 -8.003906 6.0625 -7.765625 C 6.476562 -7.535156 6.773438 -7.222656 6.953125 -6.828125 C 7.140625 -6.429688 7.21875 -5.988281 7.1875 -5.5 L 5.109375 -5.5 C 5.117188 -5.832031 5.050781 -6.097656 4.90625 -6.296875 C 4.757812 -6.492188 4.519531 -6.59375 4.1875 -6.59375 C 3.914062 -6.59375 3.6875 -6.519531 3.5 -6.375 C 3.320312 -6.238281 3.234375 -6.03125 3.234375 -5.75 C 3.234375 -5.539062 3.34375 -5.351562 3.5625 -5.1875 C 3.78125 -5.03125 4.171875 -4.882812 4.734375 -4.75 C 5.460938 -4.570312 5.988281 -4.296875 6.3125 -3.921875 C 6.644531 -3.554688 6.8125 -3.125 6.8125 -2.625 C 6.8125 -2.164062 6.710938 -1.757812 6.515625 -1.40625 C 6.328125 -1.0625 6.0625 -0.769531 5.71875 -0.53125 C 5.375 -0.300781 4.984375 -0.128906 4.546875 -0.015625 C 4.117188 0.0976562 3.675781 0.15625 3.21875 0.15625 C 2.582031 0.15625 2.019531 0.0664062 1.53125 -0.109375 C 1.050781 -0.296875 0.6875 -0.582031 0.4375 -0.96875 C 0.195312 -1.351562 0.109375 -1.84375 0.171875 -2.4375 L 2.25 -2.4375 C 2.25 -2.0625 2.367188 -1.785156 2.609375 -1.609375 C 2.847656 -1.441406 3.125 -1.359375 3.4375 -1.359375 C 3.75 -1.359375 4.019531 -1.4375 4.25 -1.59375 C 4.476562 -1.75 4.59375 -1.957031 4.59375 -2.21875 C 4.59375 -2.394531 4.503906 -2.566406 4.328125 -2.734375 C 4.148438 -2.898438 3.851562 -3.035156 3.4375 -3.140625 C 2.664062 -3.347656 2.066406 -3.609375 1.640625 -3.921875 C 1.222656 -4.242188 1.015625 -4.703125 1.015625 -5.296875 C 1.015625 -5.753906 1.101562 -6.15625 1.28125 -6.5 C 1.46875 -6.851562 1.722656 -7.148438 2.046875 -7.390625 C 2.367188 -7.628906 2.726562 -7.8125 3.125 -7.9375 C 3.519531 -8.0625 3.9375 -8.125 4.375 -8.125 Z M 4.375 -8.125 "/></g></g></g><g fill="#0062ff" fill-opacity="1"><g transform="translate(268.134875, 218.371138)"><g/></g></g><g fill="#0062ff" fill-opacity="1"><g transform="translate(269.253175, 218.371138)"><g/></g></g><g fill="#0062ff" fill-opacity="1"><g transform="translate(270.383466, 218.371138)"><g><path d="M 3.4375 -6.34375 L 3.171875 -4.796875 L 6.84375 -4.796875 L 6.5625 -3.1875 L 2.890625 -3.1875 L 2.609375 -1.609375 L 6.625 -1.609375 L 6.34375 0 L 0.234375 0 L 1.65625 -7.953125 L 7.640625 -7.953125 L 7.34375 -6.34375 Z M 3.4375 -6.34375 "/></g></g></g><g fill="#0062ff" fill-opacity="1"><g transform="translate(277.267886, 218.371138)"><g><path d="M 7.96875 -6.34375 L 5.390625 -6.34375 L 4.28125 0 L 2.203125 0 L 3.328125 -6.34375 L 0.71875 -6.34375 L 1.03125 -7.953125 L 8.265625 -7.953125 Z M 7.96875 -6.34375 "/></g></g></g><g fill="#0062ff" fill-opacity="1"><g transform="translate(284.203781, 218.371138)"><g/></g></g><g fill="#0062ff" fill-opacity="1"><g transform="translate(285.322081, 218.371138)"><g/></g></g><g fill="#0062ff" fill-opacity="1"><g transform="translate(286.452371, 218.371138)"><g><path d="M 5.65625 -7.90625 C 6.1875 -7.84375 6.65625 -7.6875 7.0625 -7.4375 C 7.476562 -7.1875 7.804688 -6.820312 8.046875 -6.34375 C 8.296875 -5.875 8.421875 -5.285156 8.421875 -4.578125 C 8.421875 -3.804688 8.265625 -3.09375 7.953125 -2.4375 C 7.648438 -1.78125 7.191406 -1.238281 6.578125 -0.8125 C 5.960938 -0.382812 5.191406 -0.125 4.265625 -0.03125 C 4.054688 -0.0195312 3.882812 -0.0078125 3.75 0 C 3.625 0 3.453125 0 3.234375 0 L 0.234375 0 L 1.65625 -7.953125 L 4.546875 -7.953125 C 4.753906 -7.953125 4.941406 -7.945312 5.109375 -7.9375 C 5.273438 -7.9375 5.457031 -7.925781 5.65625 -7.90625 Z M 4.0625 -1.640625 C 4.5625 -1.679688 4.96875 -1.835938 5.28125 -2.109375 C 5.601562 -2.390625 5.84375 -2.738281 6 -3.15625 C 6.15625 -3.570312 6.234375 -4.023438 6.234375 -4.515625 C 6.234375 -5.117188 6.113281 -5.5625 5.875 -5.84375 C 5.644531 -6.125 5.3125 -6.28125 4.875 -6.3125 C 4.75 -6.332031 4.628906 -6.34375 4.515625 -6.34375 C 4.410156 -6.34375 4.28125 -6.34375 4.125 -6.34375 L 3.4375 -6.34375 L 2.609375 -1.609375 L 3.3125 -1.609375 C 3.46875 -1.609375 3.597656 -1.609375 3.703125 -1.609375 C 3.804688 -1.617188 3.925781 -1.628906 4.0625 -1.640625 Z M 4.0625 -1.640625 "/></g></g></g><g fill="#0062ff" fill-opacity="1"><g transform="translate(294.651477, 218.371138)"><g><path d="M 3.4375 -6.34375 L 3.171875 -4.796875 L 6.84375 -4.796875 L 6.5625 -3.1875 L 2.890625 -3.1875 L 2.609375 -1.609375 L 6.625 -1.609375 L 6.34375 0 L 0.234375 0 L 1.65625 -7.953125 L 7.640625 -7.953125 L 7.34375 -6.34375 Z M 3.4375 -6.34375 "/></g></g></g><g fill="#0062ff" fill-opacity="1"><g transform="translate(301.548201, 218.371138)"><g/></g></g><g fill="#0062ff" fill-opacity="1"><g transform="translate(302.666501, 218.371138)"><g/></g></g><g fill="#0062ff" fill-opacity="1"><g transform="translate(303.7968, 218.371138)"><g><path d="M 5.65625 -7.90625 C 6.1875 -7.84375 6.65625 -7.6875 7.0625 -7.4375 C 7.476562 -7.1875 7.804688 -6.820312 8.046875 -6.34375 C 8.296875 -5.875 8.421875 -5.285156 8.421875 -4.578125 C 8.421875 -3.804688 8.265625 -3.09375 7.953125 -2.4375 C 7.648438 -1.78125 7.191406 -1.238281 6.578125 -0.8125 C 5.960938 -0.382812 5.191406 -0.125 4.265625 -0.03125 C 4.054688 -0.0195312 3.882812 -0.0078125 3.75 0 C 3.625 0 3.453125 0 3.234375 0 L 0.234375 0 L 1.65625 -7.953125 L 4.546875 -7.953125 C 4.753906 -7.953125 4.941406 -7.945312 5.109375 -7.9375 C 5.273438 -7.9375 5.457031 -7.925781 5.65625 -7.90625 Z M 4.0625 -1.640625 C 4.5625 -1.679688 4.96875 -1.835938 5.28125 -2.109375 C 5.601562 -2.390625 5.84375 -2.738281 6 -3.15625 C 6.15625 -3.570312 6.234375 -4.023438 6.234375 -4.515625 C 6.234375 -5.117188 6.113281 -5.5625 5.875 -5.84375 C 5.644531 -6.125 5.3125 -6.28125 4.875 -6.3125 C 4.75 -6.332031 4.628906 -6.34375 4.515625 -6.34375 C 4.410156 -6.34375 4.28125 -6.34375 4.125 -6.34375 L 3.4375 -6.34375 L 2.609375 -1.609375 L 3.3125 -1.609375 C 3.46875 -1.609375 3.597656 -1.609375 3.703125 -1.609375 C 3.804688 -1.617188 3.925781 -1.628906 4.0625 -1.640625 Z M 4.0625 -1.640625 "/></g></g></g><g fill="#0062ff" fill-opacity="1"><g transform="translate(311.995905, 218.371138)"><g><path d="M 3.4375 -6.34375 L 3.171875 -4.796875 L 6.84375 -4.796875 L 6.5625 -3.1875 L 2.890625 -3.1875 L 2.609375 -1.609375 L 6.625 -1.609375 L 6.34375 0 L 0.234375 0 L 1.65625 -7.953125 L 7.640625 -7.953125 L 7.34375 -6.34375 Z M 3.4375 -6.34375 "/></g></g></g><g fill="#0062ff" fill-opacity="1"><g transform="translate(318.880325, 218.371138)"><g><path d="M 5.3125 0 L 2.625 0 L 1.234375 -7.953125 L 3.5 -7.953125 L 4.28125 -1.609375 L 7.3125 -7.953125 L 9.515625 -7.953125 Z M 5.3125 0 "/></g></g></g><g fill="#0062ff" fill-opacity="1"><g transform="translate(327.07943, 218.371138)"><g><path d="M 2.3125 0 L 0.234375 0 L 1.65625 -7.953125 L 3.71875 -7.953125 Z M 2.3125 0 "/></g></g></g><g fill="#0062ff" fill-opacity="1"><g transform="translate(330.250467, 218.371138)"><g><path d="M 4.375 -8.125 C 5.082031 -8.125 5.644531 -8.003906 6.0625 -7.765625 C 6.476562 -7.535156 6.773438 -7.222656 6.953125 -6.828125 C 7.140625 -6.429688 7.21875 -5.988281 7.1875 -5.5 L 5.109375 -5.5 C 5.117188 -5.832031 5.050781 -6.097656 4.90625 -6.296875 C 4.757812 -6.492188 4.519531 -6.59375 4.1875 -6.59375 C 3.914062 -6.59375 3.6875 -6.519531 3.5 -6.375 C 3.320312 -6.238281 3.234375 -6.03125 3.234375 -5.75 C 3.234375 -5.539062 3.34375 -5.351562 3.5625 -5.1875 C 3.78125 -5.03125 4.171875 -4.882812 4.734375 -4.75 C 5.460938 -4.570312 5.988281 -4.296875 6.3125 -3.921875 C 6.644531 -3.554688 6.8125 -3.125 6.8125 -2.625 C 6.8125 -2.164062 6.710938 -1.757812 6.515625 -1.40625 C 6.328125 -1.0625 6.0625 -0.769531 5.71875 -0.53125 C 5.375 -0.300781 4.984375 -0.128906 4.546875 -0.015625 C 4.117188 0.0976562 3.675781 0.15625 3.21875 0.15625 C 2.582031 0.15625 2.019531 0.0664062 1.53125 -0.109375 C 1.050781 -0.296875 0.6875 -0.582031 0.4375 -0.96875 C 0.195312 -1.351562 0.109375 -1.84375 0.171875 -2.4375 L 2.25 -2.4375 C 2.25 -2.0625 2.367188 -1.785156 2.609375 -1.609375 C 2.847656 -1.441406 3.125 -1.359375 3.4375 -1.359375 C 3.75 -1.359375 4.019531 -1.4375 4.25 -1.59375 C 4.476562 -1.75 4.59375 -1.957031 4.59375 -2.21875 C 4.59375 -2.394531 4.503906 -2.566406 4.328125 -2.734375 C 4.148438 -2.898438 3.851562 -3.035156 3.4375 -3.140625 C 2.664062 -3.347656 2.066406 -3.609375 1.640625 -3.921875 C 1.222656 -4.242188 1.015625 -4.703125 1.015625 -5.296875 C 1.015625 -5.753906 1.101562 -6.15625 1.28125 -6.5 C 1.46875 -6.851562 1.722656 -7.148438 2.046875 -7.390625 C 2.367188 -7.628906 2.726562 -7.8125 3.125 -7.9375 C 3.519531 -8.0625 3.9375 -8.125 4.375 -8.125 Z M 4.375 -8.125 "/></g></g></g></svg>